<svg width="64" height="64" viewBox="0 0 64 64" fill="none" xmlns="http://www.w3.org/2000/svg">
<circle cx="32" cy="32" r="32" fill="white"/>
<path d="M15.5021 14.7345C-0.489244 29.3087 7.1588 52.9513 29.4077 56.8378C39.8368 58.781 39.8368 58.781 27.6695 52.9513C17.588 48.0933 15.1545 45.1784 14.4592 35.1384C13.4163 25.4223 14.8068 22.1836 22.4549 17.6494C29.7553 13.439 33.2317 12.7913 39.8368 15.7061C50.266 20.2403 51.6565 34.1668 42.6179 38.3771C34.9699 42.2636 27.6695 39.9965 27.6695 33.8429C27.6695 28.3371 31.8411 28.0132 37.0557 32.8713C41.9226 37.4055 45.7467 31.8997 42.9656 24.7745C40.1845 18.2971 26.2789 17.9732 20.7167 24.4507C14.8068 30.9281 18.9785 44.5307 28.0171 47.1217C46.0943 52.6275 62.0857 37.7294 55.4805 21.5358C49.2231 5.34224 28.7124 2.10352 15.5021 14.7345Z" fill="black"/>
<path d="M23.2 54.6C22.9067 54.7067 22.6933 54.6267 22.56 54.36C22.4267 54.1733 22.3333 53.9467 22.28 53.68C22.28 53.5733 22.2667 53.4667 22.24 53.36C22.24 53.28 22.24 53.1867 22.24 53.08C22.2133 53.0267 22.2 52.9733 22.2 52.92C22.2267 52.7067 22.24 52.5067 22.24 52.32C22.24 52.1333 22.2533 51.9467 22.28 51.76C22.28 51.3867 22.28 51 22.28 50.6C22.3067 50.2267 22.3067 49.84 22.28 49.44C22.28 49.12 22.1867 48.7733 22 48.4C21.84 48.0533 21.72 47.6667 21.64 47.24C21.6133 47.1067 21.6 46.9867 21.6 46.88C21.6 46.7733 21.6 46.6667 21.6 46.56C21.6533 46.2667 21.6933 45.9733 21.72 45.68C21.7467 45.36 21.7733 45.0533 21.8 44.76C21.8533 44.4667 21.88 44.1733 21.88 43.88C21.9067 43.5867 21.9333 43.3067 21.96 43.04C21.9867 42.7467 22.0133 42.4667 22.04 42.2C22.0933 41.9067 22.1067 41.6133 22.08 41.32C22.1333 41.0267 22.16 40.7467 22.16 40.48C22.1867 40.1867 22.2133 39.9067 22.24 39.64C22.2933 39.4267 22.3067 39.2267 22.28 39.04C22.28 38.8267 22.2667 38.6267 22.24 38.44C22.2133 38.3067 22.2 38.2 22.2 38.12C22.2267 38.0133 22.24 37.9067 22.24 37.8C22.2667 37.6667 22.28 37.5333 22.28 37.4C22.28 37.24 22.2933 37.1067 22.32 37V35.44C22.2933 35.0933 22.28 34.76 22.28 34.44C22.3067 34.0933 22.32 33.7467 22.32 33.4C22.2933 33.1333 22.28 32.8667 22.28 32.6C22.3067 32.3067 22.3333 32.0267 22.36 31.76C22.3867 31.68 22.4 31.6 22.4 31.52C22.4 31.44 22.4 31.3733 22.4 31.32V29.96C22.4 29.8 22.4133 29.68 22.44 29.6V29.08C22.3867 29 22.3867 28.8933 22.44 28.76C22.4933 28.52 22.4933 28.28 22.44 28.04C22.4133 27.9867 22.4 27.9333 22.4 27.88C22.4267 27.8 22.44 27.72 22.44 27.64C22.44 27.5067 22.44 27.3867 22.44 27.28C22.4667 27.1467 22.48 27.0133 22.48 26.88C22.48 26.7733 22.48 26.6667 22.48 26.56C22.5067 26.4267 22.5333 26.3067 22.56 26.2V26.04C22.56 25.8267 22.5733 25.6133 22.6 25.4C22.6267 25.16 22.6533 24.9467 22.68 24.76L22.92 23.2C22.9733 22.9333 23.0267 22.68 23.08 22.44C23.16 22.2 23.2533 21.96 23.36 21.72C23.52 21.24 23.8133 20.8 24.24 20.4C24.3733 20.2933 24.5067 20.2 24.64 20.12C24.8 20.04 24.9733 20 25.16 20C25.1867 19.9733 25.2267 19.96 25.28 19.96C25.4667 19.9067 25.64 19.8933 25.8 19.92C25.96 19.9467 26.12 19.9867 26.28 20.04C26.6533 20.12 26.9333 20.32 27.12 20.64C27.2533 20.8267 27.32 21 27.32 21.16C27.32 21.2933 27.3333 21.4 27.36 21.48C27.44 21.8267 27.4667 22.1467 27.44 22.44C27.44 22.5467 27.44 22.6533 27.44 22.76C27.4667 22.8667 27.4933 22.9867 27.52 23.12C27.5733 23.2533 27.6 23.4 27.6 23.56C27.6 23.6933 27.6 23.8267 27.6 23.96C27.6 24.1467 27.5867 24.3333 27.56 24.52C27.5333 24.68 27.5067 24.8533 27.48 25.04C27.4533 25.1467 27.4267 25.2667 27.4 25.4C27.4 25.5067 27.3733 25.6267 27.32 25.76C27.2933 25.9467 27.2533 26.1333 27.2 26.32C27.1733 26.5067 27.1467 26.6933 27.12 26.88V27.04C27.0667 27.3067 27.0267 27.5867 27 27.88C26.9733 28.1467 26.9333 28.4133 26.88 28.68C26.8533 28.76 26.84 28.84 26.84 28.92C26.84 29 26.84 29.0667 26.84 29.12C26.84 29.2 26.84 29.28 26.84 29.36C26.84 29.44 26.8267 29.52 26.8 29.6C26.7733 29.76 26.76 29.92 26.76 30.08C26.76 30.24 26.7467 30.4133 26.72 30.6C26.72 30.6267 26.72 30.64 26.72 30.64C26.7467 30.64 26.76 30.6533 26.76 30.68C26.76 30.7067 26.7733 30.7333 26.8 30.76C26.8533 30.7867 26.8933 30.7867 26.92 30.76C27.0267 30.7067 27.12 30.64 27.2 30.56C27.4933 30.32 27.8 30.08 28.12 29.84C28.44 29.6 28.76 29.36 29.08 29.12C29.3733 28.9067 29.6667 28.6933 29.96 28.48C30.2533 28.2667 30.5467 28.0533 30.84 27.84C30.8667 27.84 30.8933 27.8267 30.92 27.8C31.1867 27.5867 31.44 27.3733 31.68 27.16C31.9467 26.9467 32.2 26.7333 32.44 26.52C32.7333 26.2533 33.0133 25.9867 33.28 25.72C33.5733 25.4533 33.84 25.1733 34.08 24.88C34.1333 24.8267 34.1867 24.7733 34.24 24.72C34.2933 24.6667 34.3467 24.6133 34.4 24.56L35.72 23.12C35.9333 22.88 36.2133 22.6267 36.56 22.36C36.6933 22.2533 36.84 22.1867 37 22.16C37.0533 22.16 37.0933 22.16 37.12 22.16C37.1467 22.1333 37.1733 22.1333 37.2 22.16C37.3333 22.16 37.4533 22.1733 37.56 22.2C37.6667 22.2 37.7733 22.2133 37.88 22.24C37.96 22.2667 38.08 22.28 38.24 22.28C38.3733 22.2267 38.4667 22.2667 38.52 22.4C38.52 22.4267 38.5467 22.44 38.6 22.44C38.6267 22.44 38.6933 22.4133 38.8 22.36C38.88 22.36 38.92 22.3867 38.92 22.44C39 22.6 39.12 22.72 39.28 22.8C39.28 22.8267 39.28 22.84 39.28 22.84C39.3067 22.84 39.32 22.84 39.32 22.84V22.96C39.32 23.0933 39.3733 23.1733 39.48 23.2C39.5067 23.2 39.52 23.2133 39.52 23.24C39.5467 23.24 39.56 23.24 39.56 23.24C39.6133 23.2667 39.6667 23.3333 39.72 23.44C39.72 23.6267 39.76 23.8267 39.84 24.04C40 24.4933 39.9867 24.9333 39.8 25.36C39.6133 25.84 39.3467 26.3067 39 26.76L38 28.08C37.8933 28.2133 37.7733 28.3467 37.64 28.48C37.5067 28.6133 37.3733 28.7333 37.24 28.84C37.1067 28.9733 37.0133 29.08 36.96 29.16C36.9067 29.2133 36.8533 29.2667 36.8 29.32C36.7467 29.3733 36.6933 29.4267 36.64 29.48C36.5067 29.6667 36.3467 29.8133 36.16 29.92C36.0267 30.0267 35.88 30.1333 35.72 30.24C35.56 30.32 35.4133 30.4267 35.28 30.56C35.1467 30.6667 34.9867 30.76 34.8 30.84C34.64 30.8933 34.48 30.9467 34.32 31C34.1867 31.08 34.0267 31.0933 33.84 31.04H33.8C33.4533 30.9333 33.0933 31 32.72 31.24C32.64 31.2933 32.5467 31.3467 32.44 31.4C32.36 31.4533 32.2667 31.5067 32.16 31.56C31.9733 31.72 31.76 31.8667 31.52 32C31.4133 32.0533 31.32 32.12 31.24 32.2C31.16 32.2533 31.08 32.3067 31 32.36C30.7867 32.52 30.56 32.68 30.32 32.84C30.08 32.9733 29.8533 33.12 29.64 33.28L28.84 33.76C28.76 33.8133 28.6667 33.88 28.56 33.96C28.48 34.0133 28.3867 34.08 28.28 34.16C28.2267 34.2133 28.2267 34.2667 28.28 34.32L28.76 34.68C29.1067 34.8667 29.44 35.08 29.76 35.32C30.08 35.5333 30.4 35.76 30.72 36C31.0133 36.2133 31.2933 36.44 31.56 36.68C31.8533 36.8933 32.1467 37.1067 32.44 37.32C32.4933 37.3467 32.5467 37.3867 32.6 37.44C32.68 37.4933 32.7333 37.5467 32.76 37.6C33.0533 37.84 33.32 38.08 33.56 38.32C33.8267 38.5333 34.0933 38.76 34.36 39C34.8133 39.4267 35.28 39.84 35.76 40.24C36.24 40.6133 36.6933 41.0267 37.12 41.48L37.48 41.84C37.64 42.0267 37.8 42.2 37.96 42.36C38.1467 42.4933 38.3333 42.64 38.52 42.8C38.68 42.88 38.8 42.9867 38.88 43.12L39 43.24C39.1867 43.4267 39.3067 43.6267 39.36 43.84C39.4133 44.0533 39.4267 44.2933 39.4 44.56L39.36 44.84C39.3867 45.0267 39.3333 45.1733 39.2 45.28C39.12 45.3067 39.08 45.4133 39.08 45.6C39.08 45.7067 39.0267 45.76 38.92 45.76C38.8133 45.7867 38.72 45.84 38.64 45.92C38.4533 46.08 38.2267 46.2 37.96 46.28L37.64 46.4C37.5333 46.4533 37.4533 46.4667 37.4 46.44C37.2933 46.3867 37.1733 46.3333 37.04 46.28C36.9067 46.2267 36.7733 46.1867 36.64 46.16C36.5867 46.1333 36.5067 46.0667 36.4 45.96C36.2667 45.8267 36.1333 45.6933 36 45.56C35.8667 45.4 35.7333 45.24 35.6 45.08C35.4133 44.8667 35.2133 44.6533 35 44.44C34.7867 44.2267 34.5733 44.0267 34.36 43.84L33.08 42.76C32.7867 42.4667 32.48 42.2 32.16 41.96C31.84 41.72 31.5067 41.4667 31.16 41.2C31.1067 41.1467 30.9867 41.0933 30.8 41.04C30.72 41.04 30.64 41.0267 30.56 41C30.48 40.9467 30.4 40.9067 30.32 40.88C30.1333 40.8 29.9467 40.72 29.76 40.64C29.6 40.56 29.4267 40.4667 29.24 40.36C29.08 40.2533 28.92 40.1467 28.76 40.04C28.6 39.9333 28.44 39.8267 28.28 39.72C28.0933 39.56 27.88 39.4133 27.64 39.28C27.4267 39.12 27.2133 38.9733 27 38.84C26.9733 38.8133 26.9333 38.8 26.88 38.8C26.8533 38.8 26.8133 38.7867 26.76 38.76C26.6533 38.7067 26.5733 38.7467 26.52 38.88C26.4667 38.9333 26.4133 39.04 26.36 39.2L26.24 39.84C26.2133 40.08 26.1733 40.3333 26.12 40.6C26.0933 40.84 26.0667 41.08 26.04 41.32C26.0133 41.5067 25.9867 41.6933 25.96 41.88C25.9333 42.04 25.9067 42.2 25.88 42.36C25.8533 42.52 25.8267 42.68 25.8 42.84C25.7733 43 25.7333 43.16 25.68 43.32C25.6533 43.4267 25.64 43.5467 25.64 43.68C25.64 43.7867 25.64 43.9067 25.64 44.04V45.36C25.64 45.68 25.6133 46 25.56 46.32C25.5067 46.6133 25.4533 46.9067 25.4 47.2C25.32 47.7333 25.12 48.1733 24.8 48.52C24.6133 48.7867 24.48 49.0933 24.4 49.44C24.2933 49.92 24.2133 50.4267 24.16 50.96C24.1333 51.0667 24.12 51.1733 24.12 51.28C24.12 51.4133 24.1067 51.5467 24.08 51.68C24.0533 51.7867 24.04 51.9067 24.04 52.04C24.04 52.2 24.0267 52.3467 24 52.48C23.9733 52.6933 23.9467 52.9067 23.92 53.12C23.92 53.36 23.8933 53.5867 23.84 53.8C23.8133 53.9867 23.7333 54.16 23.6 54.32C23.4933 54.4533 23.36 54.5467 23.2 54.6Z" fill="#F78C00"/>
</svg>
